<svg width="24" height="24" viewBox="0 0 24 24" fill="none" xmlns="http://www.w3.org/2000/svg">
<path fill-rule="evenodd" clip-rule="evenodd" d="M12.0572 1.75H12.0572H11.9428H11.9428C9.7521 1.74999 8.03143 1.74998 6.68802 1.93059C5.31137 2.11568 4.21911 2.50271 3.36091 3.36091C2.50272 4.21911 2.11568 5.31137 1.93059 6.68802C1.74998 8.03144 1.74999 9.75212 1.75 11.9428V12.0572C1.74999 14.2479 1.74998 15.9686 1.93059 17.312C2.11568 18.6886 2.50272 19.7809 3.36091 20.6391C4.21911 21.4973 5.31137 21.8843 6.68802 22.0694C8.03144 22.25 9.7521 22.25 11.9428 22.25H11.9428H12.0572H12.0572C14.2479 22.25 15.9686 22.25 17.312 22.0694C18.6886 21.8843 19.7809 21.4973 20.6391 20.6391C21.4973 19.7809 21.8843 18.6886 22.0694 17.312C22.25 15.9686 22.25 14.2479 22.25 12.0572V12.0572V11.9428V11.9428C22.25 9.7521 22.25 8.03144 22.0694 6.68802C21.8843 5.31137 21.4973 4.21911 20.6391 3.36091C19.7809 2.50271 18.6886 2.11568 17.312 1.93059C15.9686 1.74998 14.2479 1.74999 12.0572 1.75ZM9.25 8C9.25 7.58579 8.91421 7.25 8.5 7.25C8.08579 7.25 7.75 7.58579 7.75 8L7.75 16C7.75 16.4142 8.08579 16.75 8.5 16.75C8.91421 16.75 9.25 16.4142 9.25 16L9.25 8ZM16.25 8C16.25 7.58579 15.9142 7.25 15.5 7.25C15.0858 7.25 14.75 7.58579 14.75 8V10.25H14C12.2051 10.25 10.75 11.7051 10.75 13.5C10.75 15.2949 12.2051 16.75 14 16.75C14.0633 16.75 14.131 16.7506 14.2002 16.7512C14.3632 16.7526 14.5349 16.7541 14.6796 16.7482C14.8897 16.7396 15.1635 16.7144 15.4235 16.5987C15.7204 16.4666 15.9518 16.2391 16.0906 15.9228C16.2148 15.64 16.25 15.3201 16.25 15V8ZM14 11.75H14.75L14.75 15C14.75 15.1084 14.7436 15.1864 14.7353 15.2411C14.7063 15.2443 14.6681 15.2474 14.6185 15.2494C14.511 15.2538 14.4015 15.2528 14.2628 15.2515H14.2628C14.1857 15.2508 14.0997 15.25 14 15.25C13.0335 15.25 12.25 14.4665 12.25 13.5C12.25 12.5335 13.0335 11.75 14 11.75Z" fill="white"/>
</svg>
