<svg width="24" height="24" viewBox="0 0 24 24" fill="none" xmlns="http://www.w3.org/2000/svg">
<path fill-rule="evenodd" clip-rule="evenodd" d="M12.0572 1.75H12.0572H11.9428H11.9428C9.7521 1.74999 8.03143 1.74998 6.68802 1.93059C5.31137 2.11568 4.21911 2.50271 3.36091 3.36091C2.50272 4.21911 2.11568 5.31137 1.93059 6.68802C1.74998 8.03144 1.74999 9.75212 1.75 11.9428V12.0572C1.74999 14.2479 1.74998 15.9686 1.93059 17.312C2.11568 18.6886 2.50272 19.7809 3.36091 20.6391C4.21911 21.4973 5.31137 21.8843 6.68802 22.0694C8.03144 22.25 9.7521 22.25 11.9428 22.25H11.9428H12.0572H12.0572C14.2479 22.25 15.9686 22.25 17.312 22.0694C18.6886 21.8843 19.7809 21.4973 20.6391 20.6391C21.4973 19.7809 21.8843 18.6886 22.0694 17.312C22.25 15.9686 22.25 14.2479 22.25 12.0572V12.0572V11.9428V11.9428C22.25 9.7521 22.25 8.03144 22.0694 6.68802C21.8843 5.31137 21.4973 4.21911 20.6391 3.36091C19.7809 2.50271 18.6886 2.11568 17.312 1.93059C15.9686 1.74998 14.2479 1.74999 12.0572 1.75ZM9.30701 11.0806C9.6063 10.113 9.81137 9.45472 10.0002 9.02969C10.189 9.45472 10.3941 10.113 10.6934 11.0806L11.117 12.45L8.8834 12.45L9.30701 11.0806ZM12.2837 16.2216L11.581 13.95L8.4194 13.95L7.7167 16.2216C7.59429 16.6174 7.17427 16.8389 6.77856 16.7165C6.38285 16.5941 6.16129 16.1741 6.2837 15.7784L7.87401 10.6373L7.89049 10.584C8.17127 9.67625 8.40309 8.92673 8.63478 8.40859C8.75277 8.14472 8.89738 7.87733 9.09188 7.66808C9.30261 7.44135 9.606 7.25 10.0002 7.25C10.3944 7.25 10.6978 7.44136 10.9085 7.66808C11.103 7.87734 11.2476 8.14472 11.3656 8.40859C11.5973 8.92673 11.8291 9.67624 12.1099 10.584L12.1099 10.584L13.7167 15.7784C13.8391 16.1741 13.6176 16.5941 13.2218 16.7165C12.8261 16.8389 12.4061 16.6174 12.2837 16.2216ZM16.7502 8C16.7502 7.58579 16.4144 7.25 16.0002 7.25C15.586 7.25 15.2502 7.58579 15.2502 8V8.5C15.2502 8.91421 15.586 9.25 16.0002 9.25C16.4144 9.25 16.7502 8.91421 16.7502 8.5V8ZM16.7502 11C16.7502 10.5858 16.4144 10.25 16.0002 10.25C15.586 10.25 15.2502 10.5858 15.2502 11L15.2502 16C15.2502 16.4142 15.586 16.75 16.0002 16.75C16.4144 16.75 16.7502 16.4142 16.7502 16V11Z" fill="white"/>
</svg>
