<svg id="Layer_1" data-name="Layer 1" xmlns="http://www.w3.org/2000/svg" viewBox="0 0 384.93 384.83"><defs><style>.cls-1{fill:#fbad18;}.cls-2{fill:#fff;}.cls-3{fill:#24252a;}</style></defs><title>page-setup icon-1 proportion to1</title><path class="cls-1" d="M.09,192.84C.09,145.1-.1,97.36.16,49.62.33,17.81,21.53.46,61,.25,124.14-.08,187.26.35,250.37,0c16.25-.09,29,4.09,40.16,13.66,25.71,22,53.25,42.63,77.71,65.45,8.95,8.35,15.72,21.25,15.92,32.17,1.36,74.77.8,149.57.67,224.36-.05,31.67-21.91,49.14-61,49.15q-129.19,0-258.37,0C19.72,384.78,0,368.58,0,331.28q0-69.22,0-138.44ZM254.36,20.42c-8.3-.45-13.48-1-18.65-1q-86.77-.07-173.53,0c-28,.08-38.85,9-38.89,32.25q-.25,140.8,0,281.6c0,23.62,11.42,26.47,40.82,26.49q128.18.1,256.35,0c30.48,0,41.18-2.74,41.22-27.7q.18-104.21,0-208.42c0-5-.84-10.07-1.41-16.39-21.15,0-40.13.29-59.09-.07-29.7-.57-46.21-13.92-46.77-37.72C254.06,53.7,254.36,37.89,254.36,20.42Z"/><path class="cls-2" d="M362,125.38q0,4.41,0,8.82c-.23,12.84-.19,25.66-.19,38.5q0,32.21,0,64.41t-.05,64.41q0,13.21,0,26.41c0,24.23-10.74,32.71-41.2,32.74q-128.23.09-256.39,0c-29.36,0-40.77-8.6-40.81-31.56q-.24-136.83,0-273.67c0-22.62,10.85-31.25,38.88-31.32q86.79-.23,173.54,0c5.17,0,10.34.5,18.63.93,0,17-.28,32.37.08,47.72.55,23.15,17.09,36.11,46.77,36.67,12.65.24,25.31.11,38,0l11.67-.09c1.48,0,3,0,4.44,0a32.72,32.72,0,0,1,4.71,0c2,.34,2.27,1.82,2.23,3.2Q362,119,362,125.38Z"/><path class="cls-3" d="M267.85,175.61v.88c-4.56,3.55-8.8,7.48-13.24,11.17-.51.42-.4.94-.4,1.47,0,2.2.06,4.41,0,6.61a2.08,2.08,0,0,0,.84,1.87c3.55,3,7.07,6,10.63,9.05a6.94,6.94,0,0,0,2.19,1.66v.59c-.17.55-.37,1.09-.51,1.65a80.13,80.13,0,0,1-9.41,22.58,2,2,0,0,1-2.22,1.16c-5.08-.44-10.17-.79-15.25-1.21a2.53,2.53,0,0,0-2.3.91c-1.35,1.48-2.79,2.9-4.26,4.26a2.37,2.37,0,0,0-.88,2.16c.43,5,.76,10,1.2,15a2.39,2.39,0,0,1-1.33,2.71c-3.39,1.89-6.78,3.75-10.34,5.29a103.86,103.86,0,0,1-13.67,4.48h-.59a1.76,1.76,0,0,0-.19-.39c-3.63-4.25-7.27-8.49-10.88-12.75a1.62,1.62,0,0,0-1.57-.5,39.45,39.45,0,0,1-6.32-.06,2.2,2.2,0,0,0-2.14.88c-2.22,2.68-4.54,5.27-6.77,7.95a40.81,40.81,0,0,0-4,4.87h-.59c-.51-.17-1-.39-1.52-.51a80.56,80.56,0,0,1-22.49-9.33,2.32,2.32,0,0,1-1.31-2.57c.46-5,.78-10,1.21-15a2.52,2.52,0,0,0-.94-2.29c-1.44-1.33-2.85-2.71-4.17-4.16a2.65,2.65,0,0,0-2.43-1c-5.14.44-10.28.79-15.41,1.22a1.77,1.77,0,0,1-1.88-1A82,82,0,0,1,117.24,210a2.06,2.06,0,0,1,.79-2.4c3.92-3.28,7.77-6.63,11.67-9.93a2.19,2.19,0,0,0,.88-2,59.6,59.6,0,0,1,0-6.18,2.57,2.57,0,0,0-1-2.39c-3.91-3.28-7.75-6.66-11.67-9.93a1.9,1.9,0,0,1-.69-2.25A83.6,83.6,0,0,1,126.62,152a2.53,2.53,0,0,1,2.83-1.4c4.45.43,8.91.66,13.35,1.14,1.92.21,3.39-.1,4.57-1.75a9.79,9.79,0,0,1,2.49-2.49c1.87-1.24,1.92-2.9,1.73-4.86-.45-4.59-.73-9.2-1.11-13.8a1.65,1.65,0,0,1,.88-1.8A79.7,79.7,0,0,1,167,119.59c2.83-.94,5.69-1.78,8.53-2.66h.88a2.45,2.45,0,0,0,.28.64c3.53,4.15,7.09,8.28,10.61,12.43a1.85,1.85,0,0,0,1.69.59c2.21-.05,4.42-.1,6.62,0a2.23,2.23,0,0,0,2-.9c3-3.6,6.12-7.17,9.17-10.76a5.57,5.57,0,0,0,1.47-2h.88a6.48,6.48,0,0,0,.8.31,81.71,81.71,0,0,1,23,9.51,2.14,2.14,0,0,1,1.29,2.31c-.46,5.08-.8,10.18-1.22,15.26a2.52,2.52,0,0,0,.93,2.29c1.48,1.35,2.91,2.79,4.26,4.27a2.37,2.37,0,0,0,2.17.88c5.13-.43,10.27-.79,15.41-1.21a1.83,1.83,0,0,1,2,1A96.19,96.19,0,0,1,264.11,164C265.64,167.79,266.59,171.75,267.85,175.61ZM148.12,192.44a44.21,44.21,0,1,0,43-44.26A44.13,44.13,0,0,0,148.12,192.44Z"/><path class="cls-3" d="M157.83,192.45a34.63,34.63,0,1,1,33.77,34.61A34.62,34.62,0,0,1,157.83,192.45Zm13.86,0a20.79,20.79,0,1,0,20.17-20.8A20.71,20.71,0,0,0,171.69,192.46Z"/></svg>